<svg width="180" height="70" viewBox="0 0 180 70" fill="none" xmlns="http://www.w3.org/2000/svg">
<g clip-path="url(#clip0_49_2)">
<path d="M18.84 58H11.64V17.2H18.84V58ZM24.457 42.1V36.1H42.697V42.1H24.457ZM53.8748 41.86C53.8748 44.78 54.5148 47.18 55.7948 49.06C57.0748 50.9 59.1748 51.82 62.0948 51.82C63.2948 51.82 64.5348 51.66 65.8148 51.34C67.1348 51.02 68.7548 50.48 70.6748 49.72L72.8948 55.96C70.7348 56.92 68.7348 57.6 66.8948 58C65.0948 58.4 63.3548 58.6 61.6748 58.6C58.3148 58.6 55.4948 57.88 53.2148 56.44C50.9748 55 49.2948 53.02 48.1748 50.5C47.0548 47.98 46.4948 45.1 46.4948 41.86V33.28C46.4948 30.04 47.0548 27.16 48.1748 24.64C49.2948 22.12 50.9748 20.16 53.2148 18.76C55.4948 17.32 58.3148 16.6 61.6748 16.6C63.3148 16.6 65.0148 16.8 66.7748 17.2C68.5348 17.56 70.4548 18.2 72.5348 19.12L70.3148 25.48C68.4748 24.72 66.9348 24.18 65.6948 23.86C64.4548 23.54 63.2548 23.38 62.0948 23.38C59.1748 23.38 57.0748 24.3 55.7948 26.14C54.5148 27.98 53.8748 30.36 53.8748 33.28V41.86ZM105.973 33.28V41.86C105.973 47.06 104.673 51.16 102.073 54.16C99.4727 57.12 95.6727 58.6 90.6727 58.6C85.6327 58.6 81.8127 57.12 79.2127 54.16C76.6527 51.16 75.3727 47.06 75.3727 41.86V33.28C75.3727 28.08 76.6527 24 79.2127 21.04C81.8127 18.08 85.6327 16.6 90.6727 16.6C95.6727 16.6 99.4727 18.08 102.073 21.04C104.673 24 105.973 28.08 105.973 33.28ZM98.5927 33.28C98.5927 30 97.9527 27.54 96.6727 25.9C95.3927 24.22 93.3927 23.38 90.6727 23.38C87.9527 23.38 85.9527 24.22 84.6727 25.9C83.3927 27.54 82.7527 30 82.7527 33.28V41.86C82.7527 45.14 83.3927 47.62 84.6727 49.3C85.9527 50.98 87.9527 51.82 90.6727 51.82C93.3927 51.82 95.3927 50.98 96.6727 49.3C97.9527 47.62 98.5927 45.14 98.5927 41.86V33.28ZM112.492 58V17.2H126.292C131.172 17.2 134.892 18.56 137.452 21.28C140.012 24 141.292 28 141.292 33.28V41.86C141.292 47.18 140.012 51.2 137.452 53.92C134.892 56.64 131.172 58 126.292 58H112.492ZM125.992 24.1H119.692V51.1H125.992C128.832 51.1 130.852 50.4 132.052 49C133.292 47.6 133.912 45.22 133.912 41.86V33.28C133.912 29.96 133.292 27.6 132.052 26.2C130.852 24.8 128.832 24.1 125.992 24.1ZM171.452 51.1V58H147.812V17.2H170.852V24.1H155.012V33.88H169.052V40.78H155.012V51.1H171.452Z" fill="black"/>
<path d="M18.84 58V60H20.84V58H18.84ZM11.64 58H9.64V60H11.64V58ZM11.64 17.2V15.2H9.64V17.2H11.64ZM18.84 17.2H20.84V15.2H18.84V17.2ZM18.84 56H11.64V60H18.84V56ZM13.64 58V17.2H9.64V58H13.64ZM11.64 19.2H18.84V15.2H11.64V19.2ZM16.84 17.2V58H20.84V17.2H16.84ZM24.457 42.1H22.457V44.1H24.457V42.1ZM24.457 36.1V34.1H22.457V36.1H24.457ZM42.697 36.1H44.697V34.1H42.697V36.1ZM42.697 42.1V44.1H44.697V42.1H42.697ZM26.457 42.1V36.1H22.457V42.1H26.457ZM24.457 38.1H42.697V34.1H24.457V38.1ZM40.697 36.1V42.1H44.697V36.1H40.697ZM42.697 40.1H24.457V44.1H42.697V40.1ZM55.7948 49.06L54.1416 50.1856L54.1473 50.1939L54.153 50.2021L55.7948 49.06ZM65.8148 51.34L65.3436 49.3963L65.3367 49.398L65.3298 49.3997L65.8148 51.34ZM70.6748 49.72L72.5591 49.0496L71.8648 47.098L69.9387 47.8604L70.6748 49.72ZM72.8948 55.96L73.7071 57.7876L75.4002 57.0352L74.7791 55.2896L72.8948 55.96ZM66.8948 58L66.47 56.0456L66.461 56.0476L66.8948 58ZM53.2148 56.44L52.1333 58.1224L52.1401 58.1267L52.1469 58.131L53.2148 56.44ZM48.1748 50.5L50.0025 49.6877L50.0025 49.6877L48.1748 50.5ZM48.1748 24.64L46.3472 23.8277L46.3472 23.8277L48.1748 24.64ZM53.2148 18.76L54.2749 20.456L54.2828 20.451L53.2148 18.76ZM66.7748 17.2L66.3316 19.1503L66.3528 19.1551L66.3741 19.1594L66.7748 17.2ZM72.5348 19.12L74.4231 19.7791L75.0311 18.0372L73.3439 17.2909L72.5348 19.12ZM70.3148 25.48L69.5513 27.3285L71.5061 28.1359L72.2031 26.1391L70.3148 25.48ZM65.6948 23.86L65.1951 25.7966L65.1951 25.7966L65.6948 23.86ZM55.7948 26.14L57.4367 27.2821L57.4367 27.2821L55.7948 26.14ZM51.8748 41.86C51.8748 45.0681 52.5793 47.8909 54.1416 50.1856L57.448 47.9344C56.4504 46.4691 55.8748 44.4919 55.8748 41.86H51.8748ZM54.153 50.2021C55.9169 52.7377 58.7399 53.82 62.0948 53.82V49.82C59.6098 49.82 58.2328 49.0623 57.4367 47.9179L54.153 50.2021ZM62.0948 53.82C63.4737 53.82 64.8768 53.6361 66.2999 53.2803L65.3298 49.3997C64.1928 49.6839 63.116 49.82 62.0948 49.82V53.82ZM66.286 53.2837C67.7297 52.9337 69.4441 52.3581 71.4109 51.5796L69.9387 47.8604C68.0656 48.6019 66.54 49.1063 65.3436 49.3963L66.286 53.2837ZM68.7905 50.3904L71.0105 56.6304L74.7791 55.2896L72.5591 49.0496L68.7905 50.3904ZM72.0826 54.1324C70.017 55.0504 68.1482 55.6808 66.47 56.0456L67.3197 59.9544C69.3215 59.5192 71.4526 58.7896 73.7071 57.7876L72.0826 54.1324ZM66.461 56.0476C64.7898 56.419 63.1955 56.6 61.6748 56.6V60.6C63.5141 60.6 65.3999 60.381 67.3287 59.9524L66.461 56.0476ZM61.6748 56.6C58.6001 56.6 56.1729 55.9428 54.2828 54.749L52.1469 58.131C54.8168 59.8172 58.0295 60.6 61.6748 60.6V56.6ZM54.2964 54.7576C52.3968 53.5365 50.9699 51.8645 50.0025 49.6877L46.3472 51.3123C47.6198 54.1755 49.5529 56.4635 52.1333 58.1224L54.2964 54.7576ZM50.0025 49.6877C49.0143 47.4642 48.4948 44.8685 48.4948 41.86H44.4948C44.4948 45.3315 45.0954 48.4958 46.3472 51.3123L50.0025 49.6877ZM48.4948 41.86V33.28H44.4948V41.86H48.4948ZM48.4948 33.28C48.4948 30.2714 49.0143 27.6758 50.0025 25.4523L46.3472 23.8277C45.0954 26.6442 44.4948 29.8085 44.4948 33.28H48.4948ZM50.0025 25.4523C50.968 23.2799 52.3885 21.6349 54.2748 20.456L52.1548 17.064C49.5612 18.6851 47.6217 20.9601 46.3472 23.8277L50.0025 25.4523ZM54.2828 20.451C56.1729 19.2572 58.6001 18.6 61.6748 18.6V14.6C58.0295 14.6 54.8168 15.3828 52.1469 17.069L54.2828 20.451ZM61.6748 18.6C63.1516 18.6 64.7026 18.78 66.3316 19.1503L67.2181 15.2497C65.327 14.8199 63.4781 14.6 61.6748 14.6V18.6ZM66.3741 19.1594C67.9624 19.4843 69.744 20.0725 71.7258 20.9491L73.3439 17.2909C71.1657 16.3275 69.1073 15.6357 67.1756 15.2406L66.3741 19.1594ZM70.6466 18.4609L68.4266 24.8209L72.2031 26.1391L74.4231 19.7791L70.6466 18.4609ZM71.0784 23.6315C69.194 22.8532 67.5594 22.2756 66.1946 21.9234L65.1951 25.7966C66.3103 26.0844 67.7557 26.5868 69.5513 27.3285L71.0784 23.6315ZM66.1946 21.9234C64.8081 21.5656 63.4399 21.38 62.0948 21.38V25.38C63.0698 25.38 64.1016 25.5144 65.1951 25.7966L66.1946 21.9234ZM62.0948 21.38C58.7399 21.38 55.9169 22.4623 54.153 24.9979L57.4367 27.2821C58.2328 26.1377 59.6098 25.38 62.0948 25.38V21.38ZM54.153 24.9979C52.5784 27.2614 51.8748 30.0743 51.8748 33.28H55.8748C55.8748 30.6457 56.4513 28.6986 57.4367 27.2821L54.153 24.9979ZM51.8748 33.28V41.86H55.8748V33.28H51.8748ZM102.073 54.16L103.575 55.4799L103.584 55.4699L102.073 54.16ZM79.2127 54.16L77.6913 55.4582L77.7006 55.4691L77.71 55.4799L79.2127 54.16ZM79.2127 21.04L77.71 19.7201L77.705 19.7259L77.6999 19.7317L79.2127 21.04ZM102.073 21.04L103.575 19.7201L103.575 19.7201L102.073 21.04ZM96.6727 25.9L95.0818 27.1121L95.0889 27.1214L95.096 27.1305L96.6727 25.9ZM84.6727 25.9L86.2493 27.1305L86.2565 27.1214L86.2635 27.1121L84.6727 25.9ZM84.6727 49.3L86.2635 48.0879L86.2635 48.0879L84.6727 49.3ZM96.6727 49.3L95.0818 48.0879L95.0818 48.0879L96.6727 49.3ZM103.973 33.28V41.86H107.973V33.28H103.973ZM103.973 41.86C103.973 46.7306 102.759 50.3141 100.561 52.8501L103.584 55.4699C106.586 52.0059 107.973 47.3894 107.973 41.86H103.973ZM100.57 52.8401C98.4472 55.2569 95.2635 56.6 90.6727 56.6V60.6C96.0819 60.6 100.498 58.9831 103.575 55.4799L100.57 52.8401ZM90.6727 56.6C86.036 56.6 82.8352 55.2535 80.7153 52.8401L77.71 55.4799C80.7902 58.9865 85.2293 60.6 90.6727 60.6V56.6ZM80.734 52.8618C78.5699 50.3256 77.3727 46.7377 77.3727 41.86H73.3727C73.3727 47.3823 74.7354 51.9944 77.6913 55.4582L80.734 52.8618ZM77.3727 41.86V33.28H73.3727V41.86H77.3727ZM77.3727 33.28C77.3727 28.4005 78.5705 24.8399 80.7254 22.3483L77.6999 19.7317C74.7348 23.1601 73.3727 27.7595 73.3727 33.28H77.3727ZM80.7153 22.3599C82.8352 19.9465 86.036 18.6 90.6727 18.6V14.6C85.2293 14.6 80.7902 16.2135 77.71 19.7201L80.7153 22.3599ZM90.6727 18.6C95.2635 18.6 98.4472 19.9431 100.57 22.3599L103.575 19.7201C100.498 16.2169 96.0819 14.6 90.6727 14.6V18.6ZM100.57 22.3599C102.759 24.8515 103.973 28.4077 103.973 33.28H107.973C107.973 27.7523 106.587 23.1485 103.575 19.7201L100.57 22.3599ZM100.593 33.28C100.593 29.7948 99.922 26.8126 98.2493 24.6695L95.096 27.1305C95.9834 28.2674 96.5927 30.2052 96.5927 33.28H100.593ZM98.2635 24.6879C96.5001 22.3735 93.8201 21.38 90.6727 21.38V25.38C92.9652 25.38 94.2852 26.0665 95.0818 27.1121L98.2635 24.6879ZM90.6727 21.38C87.5252 21.38 84.8452 22.3735 83.0818 24.6879L86.2635 27.1121C87.0601 26.0665 88.3801 25.38 90.6727 25.38V21.38ZM83.096 24.6695C81.4234 26.8126 80.7527 29.7948 80.7527 33.28H84.7527C84.7527 30.2052 85.362 28.2674 86.2493 27.1305L83.096 24.6695ZM80.7527 33.28V41.86H84.7527V33.28H80.7527ZM80.7527 41.86C80.7527 45.3505 81.4255 48.3382 83.0818 50.5121L86.2635 48.0879C85.3598 46.9018 84.7527 44.9295 84.7527 41.86H80.7527ZM83.0818 50.5121C84.8452 52.8265 87.5252 53.82 90.6727 53.82V49.82C88.3801 49.82 87.0601 49.1335 86.2635 48.0879L83.0818 50.5121ZM90.6727 53.82C93.8201 53.82 96.5001 52.8265 98.2635 50.5121L95.0818 48.0879C94.2852 49.1335 92.9652 49.82 90.6727 49.82V53.82ZM98.2635 50.5121C99.9198 48.3382 100.593 45.3505 100.593 41.86H96.5927C96.5927 44.9295 95.9855 46.9018 95.0818 48.0879L98.2635 50.5121ZM100.593 41.86V33.28H96.5927V41.86H100.593ZM112.492 58H110.492V60H112.492V58ZM112.492 17.2V15.2H110.492V17.2H112.492ZM137.452 21.28L138.908 19.9093L138.908 19.9093L137.452 21.28ZM137.452 53.92L138.908 55.2907L138.908 55.2907L137.452 53.92ZM119.692 24.1V22.1H117.692V24.1H119.692ZM119.692 51.1H117.692V53.1H119.692V51.1ZM132.052 49L130.554 47.6739L130.544 47.6861L130.533 47.6984L132.052 49ZM132.052 26.2L130.533 27.5016L130.544 27.5139L130.554 27.5261L132.052 26.2ZM114.492 58V17.2H110.492V58H114.492ZM112.492 19.2H126.292V15.2H112.492V19.2ZM126.292 19.2C130.798 19.2 133.92 20.4455 135.995 22.6507L138.908 19.9093C135.863 16.6745 131.545 15.2 126.292 15.2V19.2ZM135.995 22.6507C138.084 24.8702 139.292 28.2983 139.292 33.28H143.292C143.292 27.7017 141.939 23.1298 138.908 19.9093L135.995 22.6507ZM139.292 33.28V41.86H143.292V33.28H139.292ZM139.292 41.86C139.292 46.8865 138.082 50.3323 135.995 52.5493L138.908 55.2907C141.941 52.0677 143.292 47.4735 143.292 41.86H139.292ZM135.995 52.5493C133.92 54.7545 130.798 56 126.292 56V60C131.545 60 135.863 58.5255 138.908 55.2907L135.995 52.5493ZM126.292 56H112.492V60H126.292V56ZM125.992 22.1H119.692V26.1H125.992V22.1ZM117.692 24.1V51.1H121.692V24.1H117.692ZM119.692 53.1H125.992V49.1H119.692V53.1ZM125.992 53.1C129.099 53.1 131.824 52.3388 133.57 50.3016L130.533 47.6984C129.879 48.4612 128.564 49.1 125.992 49.1V53.1ZM133.549 50.3261C135.287 48.3636 135.912 45.3589 135.912 41.86H131.912C131.912 45.0811 131.296 46.8364 130.554 47.6739L133.549 50.3261ZM135.912 41.86V33.28H131.912V41.86H135.912ZM135.912 33.28C135.912 29.8136 135.284 26.8332 133.549 24.8739L130.554 27.5261C131.299 28.3668 131.912 30.1064 131.912 33.28H135.912ZM133.57 24.8984C131.824 22.8612 129.099 22.1 125.992 22.1V26.1C128.564 26.1 129.879 26.7388 130.533 27.5016L133.57 24.8984ZM171.452 51.1H173.452V49.1H171.452V51.1ZM171.452 58V60H173.452V58H171.452ZM147.812 58H145.812V60H147.812V58ZM147.812 17.2V15.2H145.812V17.2H147.812ZM170.852 17.2H172.852V15.2H170.852V17.2ZM170.852 24.1V26.1H172.852V24.1H170.852ZM155.012 24.1V22.1H153.012V24.1H155.012ZM155.012 33.88H153.012V35.88H155.012V33.88ZM169.052 33.88H171.052V31.88H169.052V33.88ZM169.052 40.78V42.78H171.052V40.78H169.052ZM155.012 40.78V38.78H153.012V40.78H155.012ZM155.012 51.1H153.012V53.1H155.012V51.1ZM169.452 51.1V58H173.452V51.1H169.452ZM171.452 56H147.812V60H171.452V56ZM149.812 58V17.2H145.812V58H149.812ZM147.812 19.2H170.852V15.2H147.812V19.2ZM168.852 17.2V24.1H172.852V17.2H168.852ZM170.852 22.1H155.012V26.1H170.852V22.1ZM153.012 24.1V33.88H157.012V24.1H153.012ZM155.012 35.88H169.052V31.88H155.012V35.88ZM167.052 33.88V40.78H171.052V33.88H167.052ZM169.052 38.78H155.012V42.78H169.052V38.78ZM153.012 40.78V51.1H157.012V40.78H153.012ZM155.012 53.1H171.452V49.1H155.012V53.1Z" fill="white"/>
</g>
<defs>
<clipPath id="clip0_49_2">
<rect width="180" height="70" fill="white"/>
</clipPath>
</defs>
</svg>
